HIERARCHY
ROOT Hip
{
	OFFSET 0.000000 0.000000 0.000000 
	CHANNELS 6 Xposition Yposition Zposition Xrotation Yrotation Zrotation
	JOINT LowerSpine
	{
		OFFSET 0.000000 8.345300 -5.129200 
		CHANNELS 3 Xrotation Yrotation Zrotation
		JOINT MiddleSpine
		{
			OFFSET 10.856900 0.000000 0.000000 
			CHANNELS 3 Xrotation Yrotation Zrotation
			JOINT Chest
			{
				OFFSET 15.298400 0.000000 0.000000 
				CHANNELS 3 Xrotation Yrotation Zrotation
				JOINT Neck
				{
					OFFSET 25.661800 -0.598600 0.000000 
					CHANNELS 3 Xrotation Yrotation Zrotation
					JOINT Head
					{
						OFFSET 8.882900 0.000000 0.000000 
						CHANNELS 3 Xrotation Yrotation Zrotation
						End Site
						{
							OFFSET 19.739901 0.000000 0.000000 
						}
					}
				}
				JOINT RClavicle
				{
					OFFSET 23.687799 0.000000 3.158400 
					CHANNELS 3 Xrotation Yrotation Zrotation
					JOINT RShoulder
					{
						OFFSET -15.594500 -3.948000 0.987000 
						CHANNELS 3 Xrotation Yrotation Zrotation
						JOINT RForearm
						{
							OFFSET -31.337000 0.000000 0.197400 
							CHANNELS 3 Xrotation Yrotation Zrotation
							JOINT RHand
							{
								OFFSET -26.402100 0.000000 0.000000 
								CHANNELS 3 Xrotation Yrotation Zrotation
								End Site
								{
									OFFSET -15.791900 -0.987000 0.000000 
								}
							}
						}
					}
				}
				JOINT LClavicle
				{
					OFFSET 23.687799 0.000000 -3.158400 
					CHANNELS 3 Xrotation Yrotation Zrotation
					JOINT LShoulder
					{
						OFFSET -15.594500 -3.948000 -0.987000 
						CHANNELS 3 Xrotation Yrotation Zrotation
						JOINT LForearm
						{
							OFFSET -31.337000 0.000000 -0.197400 
							CHANNELS 3 Xrotation Yrotation Zrotation
							JOINT LHand
							{
								OFFSET -26.402100 0.000000 0.000000 
								CHANNELS 3 Xrotation Yrotation Zrotation
								End Site
								{
									OFFSET -15.791900 -0.987000 0.000000 
								}
							}
						}
					}
				}
			}
		}
	}
	JOINT RThigh
	{
		OFFSET -8.882900 0.448100 0.000000 
		CHANNELS 3 Xrotation Yrotation Zrotation
		JOINT RShin
		{
			OFFSET 43.131599 0.000000 -0.493500 
			CHANNELS 3 Xrotation Yrotation Zrotation
			JOINT RFoot
			{
				OFFSET 0.000000 -44.725601 -0.404700 
				CHANNELS 3 Xrotation Yrotation Zrotation
				JOINT RToe
				{
					OFFSET 0.000000 -3.933200 12.195300 
					CHANNELS 3 Xrotation Yrotation Zrotation
					End Site
					{
						OFFSET 6.772500 0.000000 0.000000 
					}
				}
			}
		}
	}
	JOINT LThigh
	{
		OFFSET 8.882900 0.448100 0.000000 
		CHANNELS 3 Xrotation Yrotation Zrotation
		JOINT LShin
		{
			OFFSET 43.131599 0.000000 0.493500 
			CHANNELS 3 Xrotation Yrotation Zrotation
			JOINT LFoot
			{
				OFFSET 0.000000 -44.725601 0.404700 
				CHANNELS 3 Xrotation Yrotation Zrotation
				JOINT LToe
				{
					OFFSET 0.000000 -3.933200 -12.195300 
					CHANNELS 3 Xrotation Yrotation Zrotation
					End Site
					{
						OFFSET 6.772500 0.000000 0.000000 
					}
				}
			}
		}
	}
}
MOTION
Frames: 14
Frame Time: 0.016949
11.018436 81.996338 -32.100918 -0.811822 17.533369 2.555053 -89.999992 -90.000000 0.000000 1.334416 -0.603777 0.296776 4.461414 -1.984650 1.043697 0.000000 0.000000 0.000000 0.000000 0.000000 0.000000 89.996033 -0.289062 -86.116760 -6.091221 38.877590 68.791054 37.909302 80.565689 -38.544769 0.000000 0.000000 0.000000 -89.999634 0.007934 -89.892822 -9.271038 15.344400 65.007698 -5.366435 -43.655540 -8.115881 0.000000 0.000000 0.000000 42.943352 60.738609 -125.844299 89.601288 38.890388 90.099297 -16.754900 -1.545179 -0.860174 154.672699 90.000000 0.000000 19.643400 74.397888 -134.448395 -89.241440 -57.513889 90.352043 31.065260 -1.716993 2.259955 180.124496 -90.000000 0.000000 
11.066110 81.729210 -32.696449 -0.085027 16.917410 1.984361 -89.999992 -90.000000 0.000000 1.210695 -0.615097 0.272862 4.048272 -2.027021 0.960013 0.000000 0.000000 0.000000 0.000000 0.000000 0.000000 89.995560 -0.261047 -86.493073 -2.971189 39.659981 68.684021 26.236111 77.037277 -27.086941 0.000000 0.000000 0.000000 -89.998367 0.037483 -89.495537 -6.729002 16.250099 64.945137 -5.774732 -45.656460 -8.402897 0.000000 0.000000 0.000000 42.409599 60.999599 -127.107697 89.585571 40.014530 90.108131 -18.869289 -0.938970 -0.533895 156.874893 90.000000 0.000000 19.100410 75.161217 -135.511703 -89.210373 -58.584789 90.377296 31.282570 -1.606228 2.185750 180.001999 -90.000000 0.000000 
10.950281 81.637489 -33.211380 0.813241 15.371130 1.413007 -89.999992 -90.000000 0.000000 1.089387 -0.608518 0.251056 3.642963 -2.008967 0.882022 0.000000 0.000000 0.000000 0.000000 0.000000 0.000000 89.995193 -0.215502 -87.104843 -0.957882 39.098530 69.349213 19.229830 72.890831 -20.315550 0.000000 0.000000 0.000000 -89.997749 0.054438 -89.267647 -4.856761 16.476040 64.559486 -6.559639 -49.132660 -8.980886 0.000000 0.000000 0.000000 42.547321 62.040699 -129.178497 89.576714 40.632969 90.113243 -20.705509 -0.745665 -0.379443 159.479706 90.000000 0.000000 18.464069 76.232147 -136.242203 -89.193581 -59.138088 90.391113 31.315870 -1.414201 2.014759 180.001297 -90.000000 0.000000 
10.731654 81.720261 -33.680111 1.761597 13.157760 0.721403 -89.999992 -90.000000 0.000000 0.979278 -0.586174 0.245974 3.275584 -1.936422 0.859507 0.000000 0.000000 0.000000 0.000000 0.000000 0.000000 89.995377 -0.161068 -87.835968 0.820490 37.062538 70.094498 15.709280 69.529137 -16.981079 0.000000 0.000000 0.000000 -89.997528 0.060695 -89.183540 -3.496315 15.771610 63.785709 -7.834142 -53.884602 -9.979316 0.000000 0.000000 0.000000 42.799229 63.405621 -131.202194 89.582161 40.253399 90.110092 -22.402349 -0.649818 -0.286121 162.579498 90.000000 0.000000 16.403200 77.201607 -135.109406 -89.198341 -58.982929 90.387177 31.740601 -1.109386 1.727380 180.000305 -90.000000 0.000000 
10.558428 82.188934 -34.168743 2.546505 10.488980 0.044376 -89.999992 -90.000000 0.000000 0.887712 -0.554138 0.267684 2.971048 -1.829329 0.926947 0.000000 0.000000 0.000000 0.000000 0.000000 0.000000 89.996246 -0.107575 -88.554527 2.824775 33.694191 70.508423 13.890460 67.211433 -15.289960 0.000000 0.000000 0.000000 -89.997566 0.059487 -89.199753 -1.771059 15.320600 63.080330 -9.780312 -59.493679 -11.607730 0.000000 0.000000 0.000000 43.255760 64.981483 -133.642700 89.592583 39.517288 90.104172 -21.965521 -1.004215 -0.609034 163.730194 90.000000 0.000000 13.624990 77.994110 -132.488907 -89.239067 -57.597569 90.353951 31.925409 -0.731843 1.343140 180.000702 -90.000000 0.000000 
10.540000 83.196312 -34.461178 2.910562 7.673009 -0.470733 -89.999992 -90.000000 0.000000 0.818754 -0.519500 0.315427 2.742530 -1.712023 1.082081 0.000000 0.000000 0.000000 0.000000 0.000000 0.000000 89.997459 -0.063854 -89.141983 5.008038 29.735130 70.631813 12.550730 65.145279 -14.064160 0.000000 0.000000 0.000000 -89.997772 0.053752 -89.276863 1.424820 17.122971 63.209709 -12.855260 -65.646271 -14.341050 0.000000 0.000000 0.000000 44.047722 66.198486 -137.175797 89.587646 39.867062 90.106956 -18.501810 -1.284852 -0.791874 162.562897 90.000000 0.000000 11.662570 78.730263 -129.458099 -89.313889 -54.754959 90.294670 31.090931 -0.061017 0.553369 180.002808 -90.000000 0.000000 
10.565473 84.691383 -34.592609 3.129880 5.095950 -0.864443 -89.999992 -90.000000 0.000000 0.771119 -0.487523 0.377175 2.584833 -1.603347 1.284418 0.000000 0.000000 0.000000 0.000000 0.000000 0.000000 89.998497 -0.035074 -89.528816 7.303088 25.998421 70.477463 11.307110 62.876019 -12.946080 0.000000 0.000000 0.000000 -89.998070 0.045394 -89.389130 5.686665 20.591150 63.611900 -18.089149 -71.931900 -19.228161 0.000000 0.000000 0.000000 44.480480 66.620087 -141.411804 89.560120 41.761181 90.123016 -13.273480 -0.643814 -0.359386 162.960007 90.000000 0.000000 10.349470 79.500519 -126.148903 -89.409363 -50.462570 90.223152 29.214540 1.087003 -0.717971 180.004196 -90.000000 0.000000 
10.573646 86.504356 -34.890240 3.664956 2.995645 -1.107781 -89.999992 -90.000000 0.000000 0.739766 -0.461740 0.434517 2.473560 -1.514271 1.473903 0.000000 0.000000 0.000000 0.000000 0.000000 0.000000 89.999077 -0.020911 -89.719177 9.853313 22.408911 69.924263 10.338710 60.818089 -12.092100 0.000000 0.000000 0.000000 -89.998444 0.035577 -89.521133 9.664511 22.709539 63.234081 -26.986151 -77.357193 -27.818340 0.000000 0.000000 0.000000 44.138409 66.726303 -146.034897 89.510239 44.940392 90.154007 -8.099482 0.338570 0.133446 168.076797 90.000000 0.000000 10.841120 81.069794 -124.421303 -89.512962 -44.767529 90.152359 26.351870 1.990096 -1.596217 180.002808 -90.000000 0.000000 
10.625419 88.527924 -35.362274 4.276312 0.641669 -1.192863 -89.999992 -90.000000 0.000000 0.718203 -0.445875 0.470180 2.373372 -1.453771 1.596620 0.000000 0.000000 0.000000 0.000000 0.000000 0.000000 89.999352 -0.014765 -89.801788 12.450690 18.859859 69.023933 9.684337 59.254761 -11.525140 0.000000 0.000000 0.000000 -89.998871 0.025166 -89.661102 13.298240 23.309641 62.111271 -40.593319 -81.078346 -41.194469 0.000000 0.000000 0.000000 43.834690 67.345016 -151.550400 89.437134 49.058250 90.203308 -4.182188 0.813035 0.329356 175.033997 90.000000 0.000000 21.782669 85.113083 -132.789001 -89.613899 -37.955120 90.092506 22.117720 1.397197 -1.043120 180.000702 -90.000000 0.000000 
10.675392 90.674606 -35.864906 4.647720 -2.896899 -1.180509 -89.999992 -90.000000 0.000000 0.661081 -0.434104 0.483865 2.251135 -1.436220 1.622431 0.000000 0.000000 0.000000 0.000000 0.000000 0.000000 89.999603 -0.009187 -89.876793 14.624050 15.413090 67.858772 9.331916 58.347271 -11.223680 0.000000 0.000000 0.000000 -89.999313 0.014963 -89.798286 17.555960 24.436270 60.400230 -59.453979 -83.218689 -59.884659 0.000000 0.000000 0.000000 45.789379 69.235153 -159.739899 89.339333 53.696030 90.275032 -1.957177 0.785609 0.283823 179.086807 90.000000 0.000000 139.116898 86.858231 112.998199 -89.705063 -30.580460 90.048607 16.367950 -0.717852 0.455584 180.150208 -90.000000 0.000000 
10.650864 92.796585 -36.502537 5.076904 -7.121803 -1.152200 -89.999992 -90.000000 0.000000 0.619606 -0.449378 0.459807 2.084928 -1.481926 1.548252 0.000000 0.000000 0.000000 0.000000 0.000000 0.000000 90.000061 0.000618 -90.008636 16.505840 11.678530 66.468262 9.387180 58.492802 -11.270760 0.000000 0.000000 0.000000 -89.999741 0.005509 -89.925346 22.603830 25.928240 58.233212 -85.235687 -84.119453 -85.515106 0.000000 0.000000 0.000000 53.700272 72.444778 -174.200394 89.207787 58.676270 90.379333 -0.996504 0.312641 0.101540 179.997192 90.000000 0.000000 166.901703 81.071114 88.222023 -89.783913 -23.244579 90.020363 9.718176 -2.530307 1.280489 180.600906 -90.000000 0.000000 
10.558537 94.847656 -37.308868 5.729460 -10.673450 -1.239819 -89.999992 -90.000000 0.000000 0.555215 -0.486679 0.412076 1.863464 -1.607766 1.390855 0.000000 0.000000 0.000000 0.000000 0.000000 0.000000 90.000923 0.017608 -90.237129 18.469851 7.350139 65.207611 9.758715 59.440201 -11.589120 0.000000 0.000000 0.000000 -90.000153 -0.003328 -90.044197 27.836260 26.321911 56.448311 -112.149002 -83.662621 -112.281303 0.000000 0.000000 0.000000 68.330261 75.370697 164.501404 89.027443 63.798401 90.532349 -0.751708 -0.248571 -0.091507 180.000000 90.000000 0.000000 172.193695 78.213531 85.329422 -89.849609 -16.532940 90.004822 3.327105 -2.866883 1.152626 180.901306 -90.000000 0.000000 
10.435609 96.893120 -38.164200 6.416912 -12.873460 -1.516523 -89.999992 -90.000000 0.000000 0.470094 -0.547121 0.347835 1.579645 -1.813206 1.176562 0.000000 0.000000 0.000000 0.000000 0.000000 0.000000 90.002037 0.038373 -90.516457 20.630230 2.941734 64.422867 10.076590 60.209942 -11.863930 0.000000 0.000000 0.000000 -90.000633 -0.012838 -90.172043 32.951759 25.173019 55.777649 -129.701797 -82.370468 -129.707001 0.000000 0.000000 0.000000 81.877647 76.813652 144.334702 88.781807 68.696297 90.752373 -0.852200 -0.405970 -0.140146 180.000000 90.000000 0.000000 176.102707 78.426270 83.143967 -89.898804 -11.236120 89.998421 -1.731988 -2.923682 0.963036 180.600906 -90.000000 0.000000 
10.317282 98.896698 -39.060131 7.074084 -14.331730 -1.916540 -89.999992 -90.000000 0.000000 0.364725 -0.623565 0.275136 1.227554 -2.072014 0.932684 0.000000 0.000000 0.000000 0.000000 0.000000 0.000000 90.003143 0.056852 -90.765083 22.672359 -0.786991 64.052307 10.087110 60.234810 -11.873060 0.000000 0.000000 0.000000 -90.001282 -0.025463 -90.341873 37.948189 23.155569 55.989811 -139.751694 -80.922913 -139.651596 0.000000 0.000000 0.000000 90.518448 77.544319 128.967194 88.443657 73.140762 91.067627 -0.754862 -0.246292 -0.078465 180.000000 90.000000 0.000000 -178.097702 79.977226 78.146980 -89.926750 -8.157484 89.996849 -4.512338 -3.798390 1.103868 180.150299 -90.000000 0.000000 
